<?xml version="1.0" encoding="utf-8"?>
<!-- Generator: Adobe Illustrator 16.0.0, SVG Export Plug-In . SVG Version: 6.00 Build 0)  -->
<!DOCTYPE svg PUBLIC "-//W3C//DTD SVG 1.1//EN" "http://www.w3.org/Graphics/SVG/1.1/DTD/svg11.dtd">
<svg version="1.1"
	 id="svg1650" sodipodi:docname="New document 15" inkscape:version="0.48+devel rVersion: 0.49~devel+10252+4~lucid1" xmlns:dc="http://purl.org/dc/elements/1.1/" xmlns:cc="http://creativecommons.org/ns#" xmlns:rdf="http://www.w3.org/1999/02/22-rdf-syntax-ns#" xmlns:svg="http://www.w3.org/2000/svg" xmlns:sodipodi="http://sodipodi.sourceforge.net/DTD/sodipodi-0.dtd" xmlns:inkscape="http://www.inkscape.org/namespaces/inkscape"
	 xmlns="http://www.w3.org/2000/svg" xmlns:xlink="http://www.w3.org/1999/xlink" x="0px" y="0px" width="23.167px"
	 height="22.044px" viewBox="0 0 23.167 22.044" enable-background="new 0 0 23.167 22.044" xml:space="preserve">
<sodipodi:namedview  inkscape:window-maximized="1" inkscape:window-y="24" inkscape:window-x="0" inkscape:window-height="952" inkscape:window-width="1280" inkscape:current-layer="layer1" inkscape:pageopacity="0.0" fit-margin-bottom="0" inkscape:document-units="px" fit-margin-right="0" inkscape:pageshadow="2" fit-margin-left="0" fit-margin-top="0" showgrid="false" inkscape:cy="133.69779" inkscape:cx="253.04816" inkscape:zoom="0.69842875" borderopacity="1.0" bordercolor="#666666" pagecolor="#ffffff" id="base">
	</sodipodi:namedview>
<g id="layer1" transform="translate(-118.99908,-256.27405)" inkscape:groupmode="layer" inkscape:label="Layer 1">
	<path id="path1575" d="M134.574,256.271c-0.049,0-0.099,0.003-0.148,0.007c-1.979,0.342-3.068,2.435-3.226,4.281
		c-0.23,1.675,0.508,3.828,2.347,4.204c0.267,0.051,0.544,0.028,0.805-0.043c2.215-0.743,3.206-3.366,2.886-5.539
		C137.145,257.777,136.086,256.252,134.574,256.271z M126.181,256.36c-1.231,0.03-2.19,1.279-2.385,2.453
		c-0.411,2.325,0.646,5.214,3.069,5.95c0.227,0.049,0.462,0.055,0.691,0.019c1.637-0.273,2.331-2.108,2.262-3.59
		c-0.049-1.955-1.064-4.215-3.095-4.765C126.538,256.377,126.357,256.357,126.181,256.36z M139.939,262.965
		c-2.129,0.127-3.589,2.252-3.798,4.236c-0.282,1.431,0.481,3.345,2.114,3.459c2.276-0.028,3.83-2.461,3.895-4.554
		C142.294,264.722,141.478,263.042,139.939,262.965z M121.298,263.437c-0.906-0.008-1.797,0.535-2.093,1.456
		c-0.79,2.463,0.796,5.583,3.406,6.102c1.089,0.187,2.046-0.65,2.316-1.656c0.572-2.152-0.604-4.651-2.592-5.628
		C122.011,263.527,121.653,263.44,121.298,263.437z M130.846,267.854c-1.776,0.004-3.58,0.905-4.73,2.247
		c-1.242,1.564-2.26,3.384-2.658,5.357c-0.484,1.42,0.612,3.056,2.131,3.065c1.827,0.051,3.397-1.204,5.214-1.297
		c1.542-0.235,2.922,0.567,4.308,1.091c1.18,0.505,2.81,0.312,3.413-0.958c0.474-1.294-0.224-2.674-0.801-3.824
		c-1.179-1.865-2.441-3.826-4.373-4.991C132.574,268.065,131.713,267.853,130.846,267.854z"/>
</g>
</svg>
