<?xml version="1.0" encoding="utf-8"?>
<!-- Generator: Adobe Illustrator 16.0.0, SVG Export Plug-In . SVG Version: 6.00 Build 0)  -->
<!DOCTYPE svg PUBLIC "-//W3C//DTD SVG 1.1//EN" "http://www.w3.org/Graphics/SVG/1.1/DTD/svg11.dtd">
<svg version="1.1"
	 id="svg1650" sodipodi:docname="New document 15" inkscape:version="0.48+devel rVersion: 0.49~devel+10252+4~lucid1" xmlns:dc="http://purl.org/dc/elements/1.1/" xmlns:cc="http://creativecommons.org/ns#" xmlns:rdf="http://www.w3.org/1999/02/22-rdf-syntax-ns#" xmlns:svg="http://www.w3.org/2000/svg" xmlns:sodipodi="http://sodipodi.sourceforge.net/DTD/sodipodi-0.dtd" xmlns:inkscape="http://www.inkscape.org/namespaces/inkscape"
	 xmlns="http://www.w3.org/2000/svg" xmlns:xlink="http://www.w3.org/1999/xlink" x="0px" y="0px" width="17.723px"
	 height="17.06px" viewBox="0 0 17.723 17.06" enable-background="new 0 0 17.723 17.06" xml:space="preserve">
<sodipodi:namedview  inkscape:window-maximized="1" inkscape:window-y="24" inkscape:window-x="0" inkscape:window-height="952" inkscape:window-width="1280" inkscape:current-layer="layer1" inkscape:pageopacity="0.0" fit-margin-bottom="0" inkscape:document-units="px" fit-margin-right="0" inkscape:pageshadow="2" fit-margin-left="0" fit-margin-top="0" showgrid="false" inkscape:cy="133.69779" inkscape:cx="253.04816" inkscape:zoom="0.69842875" borderopacity="1.0" bordercolor="#666666" pagecolor="#ffffff" id="base">
	</sodipodi:namedview>
<g id="layer1" transform="translate(-118.99908,-256.27405)" inkscape:groupmode="layer" inkscape:label="Layer 1">
	<path id="path1575" d="M130.915,256.271c-0.038,0-0.076,0.002-0.114,0.005c-1.514,0.261-2.347,1.863-2.468,3.275
		c-0.176,1.282,0.389,2.928,1.795,3.216c0.204,0.039,0.416,0.021,0.616-0.033c1.694-0.568,2.453-2.575,2.208-4.237
		C132.881,257.423,132.071,256.256,130.915,256.271z M124.494,256.339c-0.942,0.023-1.675,0.979-1.825,1.876
		c-0.314,1.778,0.495,3.989,2.348,4.551c0.174,0.038,0.354,0.042,0.529,0.015c1.252-0.209,1.783-1.613,1.73-2.747
		c-0.037-1.496-0.814-3.225-2.367-3.646C124.767,256.352,124.628,256.337,124.494,256.339z M135.018,261.392
		c-1.629,0.098-2.746,1.723-2.905,3.241c-0.216,1.095,0.368,2.559,1.617,2.646c1.742-0.021,2.93-1.882,2.979-3.484
		C136.819,262.735,136.195,261.45,135.018,261.392z M120.759,261.753c-0.693-0.006-1.375,0.409-1.602,1.114
		c-0.604,1.885,0.609,4.271,2.606,4.668c0.833,0.143,1.565-0.498,1.771-1.267c0.438-1.646-0.462-3.558-1.983-4.306
		C121.304,261.822,121.03,261.755,120.759,261.753z M128.062,265.132c-1.359,0.003-2.739,0.692-3.619,1.719
		c-0.95,1.196-1.729,2.589-2.033,4.099c-0.37,1.086,0.469,2.337,1.63,2.345c1.397,0.039,2.599-0.921,3.988-0.992
		c1.179-0.18,2.235,0.434,3.295,0.835c0.902,0.386,2.149,0.238,2.61-0.733c0.362-0.99-0.171-2.046-0.613-2.925
		c-0.902-1.427-1.867-2.927-3.345-3.818C129.384,265.293,128.726,265.131,128.062,265.132z"/>
</g>
</svg>
